<svg width="1022" height="380" viewBox="0 0 1022 380" fill="none" xmlns="http://www.w3.org/2000/svg">
  <path
    d="M41.0112 302.538C36.2408 299.5 30.818 298.413 19.8602 298.413H0V378.59H14.8653V348.102H19.6427C30.6005 348.102 35.7006 347.239 40.036 344.854C46.9811 340.946 51.2113 332.696 51.2113 323.148C51.2113 314.148 47.5213 306.768 41.0112 302.538ZM29.4079 332.808C27.0157 333.566 23.5783 333.917 19.2078 333.917H14.8653V312.626H19.8602C24.7709 312.626 27.0157 312.843 29.2957 313.39C33.6381 314.583 36.2408 318.378 36.2408 323.478C36.2408 328.031 33.6381 331.616 29.4079 332.808Z"
    fill="#0F2F50" />
  <path d="M62.1689 378.59H77.0343V312.626H104.373V298.413H62.1689V378.59Z" fill="#0F2F50" />
  <path
    d="M150.161 311.328C159.492 311.328 165.784 314.365 171.207 321.416H187.805C184.768 314.688 182.193 311.11 177.065 306.768C169.424 300.416 159.789 296.958 149.853 297.002C138.931 297.045 128.469 301.402 120.747 309.125C113.024 316.848 108.667 327.31 108.624 338.231C108.624 361.452 127.397 380 150.828 380C167.321 380 181.534 370.88 187.826 356.246H170.337C163.722 363.079 158.187 365.682 150.484 365.682C135.619 365.682 123.581 353.314 123.581 338.322C123.618 331.662 125.955 325.218 130.196 320.083C135.107 314.337 141.911 311.3 150.161 311.3"
    fill="#0F2F50" />
  <path
    d="M238.146 298.413L221.983 339.206L206.143 298.413H190.085L214.708 357.544L206.466 378.59H220.573L254.204 298.413H238.146Z"
    fill="#0F2F50" />
  <path
    d="M14.6827 255.493C14.6827 245.511 22.617 236.91 28.3905 231.978C33.9738 236.126 40.7788 238.299 47.7329 238.153C54.687 238.006 61.3948 235.55 66.799 231.171C70.8328 234.532 76.3468 239.983 79.3703 246.605V268.226H92.3275V229.895C92.3275 211.592 100.395 201.686 105.411 197.302C111.965 202.527 120.071 205.425 128.452 205.541C136.834 205.657 145.016 202.983 151.712 197.94C156.763 202.633 164.101 212.441 164.101 229.895V238.678C164.037 239.695 164.002 240.719 164.002 241.779V268.219H177.037V239.211C177.355 234.081 178.827 229.089 181.343 224.607C183.858 220.125 187.352 216.269 191.565 213.325C196.639 216.82 202.632 218.741 208.792 218.847C214.953 218.953 221.008 217.24 226.2 213.921C230.55 217.14 234.073 221.346 236.481 226.193C238.888 231.039 240.111 236.388 240.048 241.8V268.24H252.977V241.779C252.977 222.774 243.155 211.052 235.495 204.773C237.867 201.203 239.483 197.184 240.241 192.965C241 188.745 240.886 184.416 239.905 180.242C238.925 176.069 237.1 172.141 234.542 168.701C231.985 165.261 228.749 162.381 225.035 160.24V142.828C225.035 107.1 201.772 88.5373 187.047 80.3926C191.872 75.8206 195.662 70.269 198.164 64.1107C200.665 57.9524 201.82 51.3301 201.55 44.6887C201.279 38.0473 199.591 31.5406 196.598 25.6057C193.605 19.6708 189.376 14.4453 184.196 10.28C179.016 6.11484 173.005 3.10646 166.566 1.45702C160.127 -0.192427 153.41 -0.444733 146.865 0.717051C140.32 1.87884 134.1 4.4278 128.622 8.19271C123.145 11.9576 118.536 16.8512 115.106 22.5449C105.618 17.6046 94.7192 16.0809 84.2404 18.2297C73.7616 20.3785 64.3418 26.0688 57.5641 34.3444C50.7864 42.62 47.064 52.9765 47.0223 63.6732C46.9807 74.37 50.6224 84.7551 57.3354 93.0832C48.2156 99.6846 35.5882 114.459 35.2374 145.81C35.0971 159.237 35.0199 169.921 35.0059 177.757C30.8948 179.465 27.1943 182.028 24.1503 185.276C21.1063 188.524 18.7886 192.383 17.3513 196.596C15.9139 200.809 15.3899 205.28 15.814 209.711C16.238 214.143 17.6005 218.433 19.8109 222.297C12.2063 228.863 1.74658 240.607 1.74658 255.493V268.219H14.6827V255.493ZM128.954 192.609C124.013 192.61 119.183 191.146 115.075 188.402C110.967 185.657 107.765 181.756 105.874 177.192C103.983 172.627 103.489 167.604 104.453 162.759C105.418 157.913 107.798 153.462 111.293 149.97C114.787 146.477 119.239 144.1 124.085 143.138C128.931 142.176 133.954 142.673 138.517 144.566C143.081 146.46 146.98 149.664 149.722 153.774C152.464 157.884 153.926 162.715 153.921 167.655C153.916 174.276 151.284 180.624 146.603 185.306C141.922 189.988 135.575 192.622 128.954 192.63M209.314 205.917C205.661 205.917 202.089 204.833 199.052 202.804C196.014 200.774 193.647 197.889 192.249 194.514C190.851 191.139 190.485 187.425 191.198 183.842C191.91 180.259 193.67 176.968 196.253 174.384C198.836 171.801 202.127 170.042 205.71 169.329C209.293 168.616 213.007 168.982 216.382 170.38C219.758 171.778 222.642 174.146 224.672 177.183C226.702 180.221 227.785 183.792 227.785 187.445C227.779 192.343 225.832 197.038 222.369 200.5C218.906 203.963 214.211 205.911 209.314 205.917ZM212.078 142.849V156.178C211.166 156.101 210.247 156.052 209.314 156.052C203.725 156.048 198.236 157.536 193.415 160.364C188.594 163.191 184.615 167.254 181.889 172.133C179.164 177.013 177.791 182.531 177.912 188.119C178.033 193.707 179.644 199.161 182.579 203.917C179.613 206.202 176.911 208.812 174.525 211.697C172.045 202.858 167.213 194.857 160.544 188.547C165.777 180.659 167.863 171.095 166.391 161.745C164.918 152.394 159.993 143.934 152.589 138.037C150.617 111.274 138.733 98.4429 130.21 92.5922C131.39 91.1007 132.477 89.538 133.465 87.913C139.839 91.2374 146.898 93.038 154.086 93.1731C161.274 93.3082 168.395 91.7742 174.89 88.6917C184.767 92.8096 212.071 107.408 212.071 142.807M154.967 12.927C160.117 12.9114 165.202 14.0773 169.831 16.3351C174.46 18.5929 178.509 21.8823 181.667 25.9504C184.825 30.0185 187.008 34.7568 188.048 39.8008C189.088 44.8448 188.957 50.0602 187.665 55.0457C186.374 60.0312 183.956 64.654 180.597 68.5584C177.239 72.4629 173.03 75.545 168.293 77.5676C163.557 79.5903 158.42 80.4995 153.277 80.2255C148.134 79.9515 143.123 78.5015 138.628 75.9871C140.816 67.8788 140.769 59.3295 138.491 51.2459C136.214 43.1623 131.791 35.8458 125.692 30.0722C128.621 24.874 132.878 20.5472 138.028 17.5347C143.177 14.5221 149.035 12.932 155.002 12.927M93.5973 30.1564C100.257 30.1564 106.768 32.1313 112.305 35.8314C117.843 39.5314 122.159 44.7905 124.707 50.9435C127.256 57.0964 127.923 63.867 126.623 70.3989C125.324 76.9309 122.117 82.9309 117.408 87.6402C112.699 92.3495 106.699 95.5565 100.167 96.8558C93.6346 98.1551 86.8641 97.4883 80.7111 94.9396C74.5581 92.391 69.2991 88.075 65.599 82.5375C61.8989 76.9999 59.9241 70.4896 59.9241 63.8296C59.9241 54.8989 63.4718 46.334 69.7867 40.0191C76.1017 33.7041 84.6666 30.1564 93.5973 30.1564ZM67.0726 102.119C74.9343 107.6 84.2999 110.514 93.8837 110.46C103.467 110.406 112.8 107.387 120.599 101.817C125.397 104.399 135.205 111.891 138.691 130.987C131.346 129.031 123.583 129.33 116.41 131.845C109.238 134.36 102.988 138.975 98.4721 145.089C93.9566 151.203 91.3849 158.534 91.091 166.129C90.7971 173.724 92.7948 181.232 96.8243 187.677C90.2019 193.514 80.8295 205.215 79.5597 225.272C77.9603 223.7 76.4169 222.318 75.0069 221.147C77.4469 216.425 78.6476 211.161 78.4964 205.848C78.3453 200.536 76.8472 195.348 74.1427 190.773C71.4382 186.198 67.6159 182.384 63.0344 179.691C58.4528 176.997 53.2621 175.511 47.949 175.372C47.949 168.68 48.0332 159.237 48.1735 145.95C48.4752 116.444 61.0325 105.627 67.0445 102.126M47.0791 188.28C50.7324 188.28 54.3036 189.364 57.3412 191.393C60.3787 193.423 62.7462 196.308 64.1443 199.683C65.5423 203.058 65.9081 206.772 65.1954 210.355C64.4827 213.938 62.7234 217.229 60.1402 219.812C57.557 222.396 54.2657 224.155 50.6827 224.868C47.0996 225.58 43.3857 225.215 40.0105 223.816C36.6354 222.418 33.7506 220.051 31.7209 217.013C29.6913 213.976 28.608 210.405 28.608 206.751C28.6135 201.854 30.5614 197.159 34.0242 193.696C37.487 190.234 42.182 188.286 47.0791 188.28Z"
    fill="#0F2F50" />
  <path
    d="M315.181 78.0145H327.809C334.824 78.0145 338.254 78.7161 341.299 80.6452C345.452 83.3461 347.802 88.0463 347.802 93.7918C347.802 99.8811 345.108 105.135 340.682 107.626C337.911 109.148 334.663 109.73 327.675 109.73H324.631V129.142H315.181V78.0145ZM327.423 100.639C329.613 100.717 331.803 100.481 333.926 99.9372C335.219 99.5881 336.354 98.8097 337.146 97.7299C337.937 96.6501 338.338 95.3331 338.282 93.9953C338.282 90.7472 336.627 88.3269 333.856 87.5623C331.877 87.1542 329.855 86.9917 327.837 87.0782H324.659V100.639H327.423Z"
    fill="#0F2F50" />
  <path
    d="M407.396 103.543C407.396 118.485 395.912 130.04 381.04 130.04C366.027 130.04 354.129 118.415 354.129 103.613C354.129 88.6706 365.887 77.1165 381.173 77.1165C384.631 77.1256 388.054 77.8169 391.244 79.1507C394.435 80.4845 397.331 82.4347 399.767 84.8894C402.203 87.3442 404.131 90.2554 405.44 93.4562C406.749 96.6571 407.414 100.085 407.396 103.543ZM363.67 103.543C363.641 105.826 364.068 108.091 364.927 110.207C365.785 112.322 367.057 114.245 368.668 115.863C370.28 117.48 372.198 118.759 374.31 119.625C376.423 120.491 378.687 120.926 380.97 120.906C390.651 120.906 397.848 113.575 397.848 103.683C397.848 93.6514 390.517 86.2503 380.556 86.2503C378.31 86.2704 376.09 86.7344 374.024 87.6156C371.957 88.4967 370.086 89.7777 368.517 91.3848C366.947 92.9919 365.711 94.8934 364.88 96.98C364.048 99.0665 363.637 101.297 363.67 103.543Z"
    fill="#0F2F50" />
  <path
    d="M464.606 114.887C460.628 124.231 451.508 130.04 440.985 130.04C437.463 130.073 433.97 129.408 430.706 128.083C427.443 126.759 424.474 124.8 421.972 122.322C419.469 119.843 417.483 116.893 416.128 113.642C414.772 110.391 414.075 106.904 414.075 103.382C414.097 96.4157 416.874 89.7416 421.801 84.8166C426.727 79.8916 433.402 77.1158 440.368 77.0955C446.708 77.0664 452.855 79.272 457.731 83.325C460.979 86.089 462.641 88.369 464.577 92.6623H454.02C450.561 88.1656 446.548 86.2293 440.599 86.2293C435.345 86.2293 430.988 88.1656 427.874 91.8415C425.173 95.1128 423.686 99.2169 423.665 103.459C423.642 108.042 425.434 112.448 428.649 115.714C431.864 118.98 436.241 120.842 440.824 120.892C445.735 120.892 449.242 119.236 453.451 114.873L464.606 114.887Z"
    fill="#0F2F50" />
  <path
    d="M521.816 114.887C517.803 124.231 508.746 130.04 498.23 130.04C494.708 130.073 491.215 129.408 487.951 128.083C484.688 126.759 481.719 124.8 479.217 122.322C476.715 119.843 474.728 116.893 473.373 113.642C472.017 110.391 471.32 106.904 471.32 103.382C471.34 96.4164 474.116 89.7422 479.041 84.817C483.967 79.8918 490.641 77.1159 497.606 77.0955C503.946 77.0652 510.094 79.271 514.969 83.3251C518.224 86.0891 519.879 88.369 521.816 92.6624H511.23C507.771 88.1866 503.758 86.2785 497.809 86.2785C492.555 86.2785 488.199 88.2147 485.084 91.8907C482.383 95.1619 480.896 99.266 480.875 103.508C480.852 108.091 482.644 112.497 485.859 115.763C489.074 119.029 493.451 120.891 498.034 120.941C502.945 120.941 506.452 119.285 510.696 114.922L521.816 114.887Z"
    fill="#0F2F50" />
  <path
    d="M572.178 78.0145V129.142H562.77V93.7217L540.567 129.142H530.949V78.0145H540.357V113.435L562.56 78.0145H572.178Z"
    fill="#0F2F50" />
  <path
    d="M624.961 78.0143V129.141H615.553V93.7215L593.35 129.141H583.732V78.0143H593.139V113.434L615.35 78.0143H624.961ZM600.056 64.3206C600.056 68.1228 601.509 69.575 604.35 69.575C607.191 69.575 608.636 68.1228 608.636 64.3206H616.591C615.483 70.8938 610.572 74.0718 604.35 74.0718C598.127 74.0718 593.21 70.8938 592.101 64.3206H600.056Z"
    fill="#0F2F50" />
  <path
    d="M684.597 114.887C680.584 124.231 671.521 130.04 661.005 130.04C657.483 130.073 653.989 129.408 650.726 128.083C647.462 126.759 644.494 124.8 641.991 122.322C639.489 119.843 637.503 116.893 636.147 113.642C634.792 110.391 634.094 106.904 634.094 103.382C634.115 96.4164 636.891 89.7422 641.816 84.817C646.741 79.8918 653.415 77.1159 660.38 77.0955C666.721 77.0652 672.868 79.271 677.743 83.3251C680.998 86.0891 682.654 88.369 684.597 92.6624H674.011C670.553 88.1656 666.54 86.2294 660.591 86.2294C655.336 86.2294 650.973 88.1656 647.858 91.8416C645.16 95.1142 643.673 99.2174 643.649 103.459C643.625 108.041 645.415 112.447 648.629 115.714C651.843 118.98 656.219 120.842 660.801 120.892C665.712 120.892 669.22 119.236 673.464 114.873L684.597 114.887Z"
    fill="#0F2F50" />
  <path
    d="M693.724 78.0145H703.202V100.085L719.049 78.0145H730.463L711.227 103.129L730.463 129.142H719.049L703.202 106.658V129.142H693.724V78.0145Z"
    fill="#0F2F50" />
  <path
    d="M779.162 78.0145V129.142H769.755V93.7217L747.544 129.142H737.934V78.0145H747.341V113.435L769.544 78.0145H779.162Z"
    fill="#0F2F50" />
  <path
    d="M831.945 78.0143V129.141H822.538V93.7215L800.335 129.141H790.717V78.0143H800.124V113.434L822.334 78.0143H831.945ZM807.041 64.3206C807.041 68.1228 808.493 69.575 811.328 69.575C814.162 69.575 815.621 68.1228 815.621 64.3206H823.576C822.468 70.8938 817.557 74.0718 811.328 74.0718C805.098 74.0718 800.194 70.8938 799.086 64.3206H807.041Z"
    fill="#0F2F50" />
  <path d="M324.659 170.097V212.153H315.181V161.033H342.092V170.097H324.659Z" fill="#0F2F50" />
  <path
    d="M399.784 186.597C399.784 201.539 388.3 213.093 373.428 213.093C358.415 213.093 346.518 201.469 346.518 186.667C346.518 171.724 358.275 160.17 373.568 160.17C377.026 160.179 380.448 160.871 383.639 162.204C386.829 163.538 389.725 165.489 392.16 167.943C394.595 170.398 396.522 173.31 397.831 176.51C399.139 179.711 399.803 183.139 399.784 186.597ZM356.1 186.597C356.076 188.873 356.505 191.131 357.363 193.24C358.221 195.349 359.49 197.265 361.097 198.878C362.703 200.491 364.615 201.768 366.72 202.634C368.825 203.501 371.081 203.939 373.358 203.924C383.046 203.924 390.237 196.593 390.237 186.695C390.237 176.67 382.906 169.262 372.944 169.262C363.607 169.262 356.1 176.944 356.1 186.597Z"
    fill="#0F2F50" />
  <path
    d="M456.994 197.905C452.982 207.242 443.925 213.058 433.409 213.058C429.887 213.091 426.393 212.426 423.13 211.102C419.866 209.777 416.898 207.819 414.396 205.34C411.893 202.861 409.907 199.911 408.552 196.66C407.196 193.409 406.498 189.922 406.499 186.4C406.519 179.435 409.295 172.761 414.22 167.835C419.145 162.91 425.819 160.134 432.785 160.114C439.124 160.082 445.272 162.285 450.147 166.336C453.402 169.142 455.058 171.387 456.994 175.674H446.408C442.95 171.184 438.937 169.241 432.988 169.241C427.734 169.241 423.377 171.184 420.262 174.853C417.562 178.127 416.075 182.233 416.053 186.477C416.027 191.06 417.815 195.468 421.028 198.737C424.24 202.005 428.616 203.87 433.199 203.924C438.109 203.924 441.617 202.262 445.861 197.905H456.994Z"
    fill="#0F2F50" />
  <path
    d="M470.625 212.153L475.887 198.733L460.18 161.033H470.415L480.517 187.046L490.822 161.033H501.065L479.619 212.153H470.625Z"
    fill="#0F2F50" />
  <path
    d="M543.886 222.185L541.95 212.153H502.931L500.994 222.185H494.351V203.097H501.135L518.673 161.005H526.277L543.816 203.097H550.599V222.185H543.886ZM533.924 203.097L522.44 175.078L510.956 203.097H533.924Z"
    fill="#0F2F50" />
  <path
    d="M575.019 161.033H582.49L603.936 212.153H593.49L588.025 198.943H569.828L564.16 212.153H553.714L575.019 161.033ZM584.216 189.88L578.751 174.383L573.286 189.88H584.216Z"
    fill="#0F2F50" />
  <path
    d="M611.057 161.033H623.685C630.7 161.033 634.13 161.734 637.175 163.664C641.328 166.358 643.678 171.065 643.678 176.803C643.678 182.892 640.977 188.147 636.55 190.637C633.786 192.16 630.531 192.742 623.544 192.742H620.5V212.181H611.022L611.057 161.033ZM623.306 183.65C625.496 183.728 627.686 183.491 629.809 182.949C631.101 182.597 632.236 181.817 633.028 180.736C633.819 179.655 634.22 178.338 634.165 177C634.165 173.745 632.503 171.324 629.739 170.567C627.76 170.155 625.738 169.992 623.72 170.083H620.535V183.65H623.306Z"
    fill="#0F2F50" />
  <path
    d="M700.509 197.905C696.496 207.242 687.432 213.058 676.916 213.058C673.394 213.091 669.901 212.426 666.637 211.102C663.374 209.777 660.405 207.819 657.903 205.34C655.401 202.861 653.414 199.911 652.059 196.66C650.704 193.409 650.006 189.922 650.006 186.4C650.028 179.434 652.806 172.76 657.732 167.835C662.658 162.91 669.333 160.134 676.299 160.114C682.638 160.083 688.786 162.286 693.662 166.336C696.91 169.142 698.572 171.387 700.509 175.674H689.923C686.464 171.184 682.451 169.241 676.502 169.241C671.248 169.241 666.892 171.184 663.777 174.853C661.076 178.127 659.589 182.233 659.568 186.477C659.541 191.058 661.328 195.463 664.537 198.732C667.747 202 672.118 203.867 676.699 203.924C681.61 203.924 685.117 202.261 689.326 197.905H700.509Z"
    fill="#0F2F50" />
  <path d="M714.686 170.097H705.208V161.033H733.641V170.097H724.163V212.153H714.686V170.097Z" fill="#0F2F50" />
  <path
    d="M740.768 161.033H751.291C759.106 161.033 762.291 161.657 765.406 163.734C768.913 166.084 770.941 170.048 770.941 174.664C770.941 179.504 769.348 182.135 765.265 184.274C768.654 185.678 770.176 186.695 771.628 188.701C773.245 191.137 774.066 194.015 773.978 196.937C773.978 202.332 771.418 206.969 766.963 209.529C763.855 211.325 759.843 212.153 754.378 212.153H740.747L740.768 161.033ZM753.29 180.746C759.029 180.746 761.456 179.16 761.456 175.491C761.456 171.984 759.029 170.3 754.118 170.3H750.246V180.746H753.29ZM754.953 203.096C761.589 203.096 764.431 201.153 764.431 196.656C764.431 192.16 761.316 190.02 754.742 190.02H750.246V203.096H754.953Z"
    fill="#0F2F50" />
  <path
    d="M783.105 161.033H810.57V170.097H792.583V182.128H809.812V191.192H792.583V203.089H810.57V212.153H783.105V161.033Z"
    fill="#0F2F50" />
  <path
    d="M821.086 161.033H830.564V181.644H848.825V161.033H858.302V212.153H848.825V190.707H830.564V212.153H821.086V161.033Z"
    fill="#0F2F50" />
  <path
    d="M869.856 161.033H879.334V181.644H897.595V161.033H907.072V212.153H897.595V190.707H879.334V212.153H869.856V161.033Z"
    fill="#0F2F50" />
  <path
    d="M928.104 161.033V181.026H931.492C939.314 181.026 942.976 181.51 946.091 183.033C951.072 185.453 954.046 190.707 954.046 196.656C954.046 202.332 951.415 206.969 946.785 209.593C943.397 211.536 939.454 212.153 931.632 212.153H918.626V161.033H928.104ZM928.104 203.124H931.913C934.343 203.208 936.776 203.046 939.174 202.64C942.492 201.876 944.498 199.596 944.498 196.481C944.498 193.71 942.492 191.57 939.244 190.806C936.676 190.264 934.052 190.028 931.429 190.104H928.104V203.124ZM968.645 212.181H959.167V161.033H968.645V212.181Z"
    fill="#0F2F50" />
  <path
    d="M1021.43 161.033V212.153H1012.03V176.733L989.817 212.153H980.206V161.033H989.578V196.453L1011.78 161.033H1021.43ZM996.524 147.311C996.524 151.12 997.976 152.572 1000.81 152.572C1003.64 152.572 1005.1 151.12 1005.1 147.311H1013.06C1011.95 153.884 1007.04 157.069 1000.81 157.069C994.58 157.069 989.677 153.884 988.568 147.311H996.524Z"
    fill="#0F2F50" />
  <path
    d="M363.256 280.924C359.243 290.261 350.187 296.069 339.671 296.069C336.149 296.103 332.655 295.438 329.392 294.113C326.128 292.788 323.16 290.83 320.657 288.351C318.155 285.873 316.169 282.923 314.813 279.672C313.458 276.421 312.76 272.934 312.76 269.411C312.781 262.446 315.556 255.771 320.481 250.844C325.406 245.918 332.081 243.141 339.046 243.118C345.387 243.088 351.534 245.294 356.409 249.348C359.664 252.112 361.32 254.399 363.256 258.685H352.67C349.212 254.188 345.199 252.252 339.25 252.252C333.995 252.252 329.639 254.188 326.524 257.864C323.825 261.136 322.338 265.24 322.315 269.482C322.293 274.062 324.083 278.466 327.295 281.732C330.507 284.998 334.88 286.861 339.46 286.915C344.371 286.915 347.879 285.259 352.123 280.902L363.256 280.924Z"
    fill="#0F2F50" />
  <path
    d="M423.237 269.573C423.237 284.515 411.753 296.07 396.881 296.07C381.868 296.07 369.97 284.445 369.97 269.643C369.97 254.701 381.728 243.146 397.021 243.146C400.479 243.157 403.9 243.849 407.09 245.183C410.28 246.517 413.175 248.467 415.61 250.922C418.046 253.377 419.973 256.287 421.281 259.488C422.59 262.688 423.255 266.115 423.237 269.573ZM379.518 269.573C379.491 271.852 379.919 274.113 380.776 276.225C381.634 278.337 382.904 280.256 384.512 281.871C386.12 283.486 388.034 284.764 390.143 285.63C392.251 286.496 394.51 286.933 396.79 286.915C406.478 286.915 413.668 279.584 413.668 269.692C413.668 259.66 406.337 252.259 396.376 252.259C394.13 252.28 391.911 252.745 389.846 253.627C387.78 254.508 385.909 255.789 384.341 257.396C382.772 259.003 381.537 260.905 380.706 262.991C379.874 265.077 379.464 267.307 379.497 269.552"
    fill="#0F2F50" />
  <path
    d="M467.924 244.045V286.108H475.536V305.204H468.893L466.956 295.172H432.371V244.045H441.849V286.108H458.447V244.045H467.924Z"
    fill="#0F2F50" />
  <path
    d="M524.93 244.045V295.172H515.523V259.752L493.32 295.172H483.702V244.045H493.109V279.465L515.312 244.045H524.93Z"
    fill="#0F2F50" />
  <path
    d="M553.362 244.045H560.834L582.279 295.172H571.834L566.369 281.955H548.171L542.503 295.172H532.057L553.362 244.045ZM562.559 272.884L557.095 257.388L551.63 272.884H562.559Z"
    fill="#0F2F50" />
  <path d="M595.216 295.172H584.981L606.356 244.045H613.828L635.203 295.172H624.961L610.089 257.051L595.216 295.172Z"
    fill="#0F2F50" />
  <path
    d="M651.808 244.045V264.038H655.197C663.012 264.038 666.681 264.522 669.788 266.044C674.769 268.472 677.751 273.726 677.751 279.675C677.751 285.35 675.12 289.98 670.483 292.611C667.095 294.547 663.152 295.172 655.33 295.172H642.324V244.045H651.808ZM651.808 286.136H655.611C658.041 286.22 660.474 286.058 662.871 285.652C666.197 284.894 668.203 282.607 668.203 279.493C668.203 276.729 666.197 274.582 662.942 273.824C660.374 273.282 657.75 273.046 655.127 273.123H651.808V286.136Z"
    fill="#0F2F50" />
  <path
    d="M686.252 244.045H695.73V264.662H713.998V244.045H723.475V295.172H713.998V273.726H695.73V295.172H686.252V244.045Z"
    fill="#0F2F50" />
  <path
    d="M744.501 244.045V264.038H747.896C755.711 264.038 759.38 264.522 762.488 266.044C767.469 268.465 770.45 273.726 770.45 279.675C770.45 285.35 767.82 289.98 763.182 292.611C759.794 294.547 755.852 295.172 748.03 295.172H735.03V244.045H744.501ZM744.501 286.136H748.31C750.74 286.22 753.173 286.058 755.571 285.652C758.896 284.894 760.903 282.607 760.903 279.493C760.903 276.729 758.896 274.582 755.641 273.824C753.073 273.282 750.45 273.046 747.826 273.123H744.501V286.136ZM785.042 295.2H775.564V244.052H785.042V295.2Z"
    fill="#0F2F50" />
  <path
    d="M837.825 244.044V295.172H828.417V259.752L806.214 295.172H796.596V244.044H806.004V279.464L828.228 244.044H837.825ZM812.921 230.351C812.921 234.153 814.373 235.605 817.207 235.605C820.041 235.605 821.5 234.153 821.5 230.351H829.456C828.347 236.924 823.437 240.102 817.207 240.102C810.977 240.102 806.074 236.924 804.965 230.351H812.921Z"
    fill="#0F2F50" />
  <path
    d="M320.99 378.19L326.251 364.77L310.544 327.063H320.779L330.881 353.075L341.194 327.063H351.429L329.983 378.19H320.99Z"
    fill="#0F2F50" />
  <path
    d="M358.346 327.063H367.824V347.681H386.092V327.063H395.569V378.19H386.092V356.744H367.824V378.19H358.346V327.063Z"
    fill="#0F2F50" />
  <path
    d="M448.352 327.063V378.19H438.944V342.77L416.734 378.19H407.123V327.063H416.524V362.483L438.734 327.063H448.352Z"
    fill="#0F2F50" />
  <path
    d="M459.927 327.063H470.45C478.272 327.063 481.45 327.687 484.564 329.764C488.072 332.114 490.099 336.077 490.099 340.693C490.099 345.534 488.507 348.165 484.424 350.311C487.819 351.714 489.335 352.732 490.794 354.738C492.412 357.171 493.233 360.047 493.144 362.967C493.144 368.362 490.583 372.999 486.129 375.594C483.014 377.39 479.001 378.225 473.501 378.225H459.927V327.063ZM472.442 346.783C478.187 346.783 480.608 345.19 480.608 341.521C480.608 338.014 478.187 336.337 473.277 336.337H469.397V346.783H472.442ZM474.105 369.126C480.748 369.126 483.582 367.19 483.582 362.693C483.582 358.197 480.467 356.05 473.894 356.05H469.397V369.126H474.105Z"
    fill="#0F2F50" />
  <path
    d="M502.243 327.063H529.701V336.127H511.721V348.165H528.943V357.228H511.721V369.126H529.701V378.19H502.243V327.063Z"
    fill="#0F2F50" />
  <path
    d="M540.217 327.063H552.844C559.86 327.063 563.29 327.764 566.335 329.694C570.481 332.394 572.838 337.095 572.838 342.84C572.838 348.922 570.137 354.184 565.71 356.674C562.946 358.197 559.691 358.779 552.704 358.779H549.722V378.218H540.217V327.063ZM552.465 349.687C554.653 349.766 556.841 349.529 558.962 348.986C560.256 348.636 561.393 347.857 562.186 346.776C562.979 345.695 563.381 344.376 563.325 343.037C563.325 339.789 561.662 337.368 558.898 336.604C556.92 336.196 554.898 336.033 552.879 336.12H549.722V349.68L552.465 349.687Z"
    fill="#0F2F50" />
  <path
    d="M629.696 363.935C625.683 373.272 616.62 379.088 606.104 379.088C602.582 379.121 599.088 378.456 595.825 377.132C592.561 375.807 589.593 373.849 587.09 371.37C584.588 368.891 582.602 365.941 581.246 362.69C579.891 359.439 579.193 355.952 579.193 352.43C579.228 345.479 582.007 338.824 586.925 333.911C591.842 328.999 598.501 326.228 605.451 326.2C611.793 326.171 617.943 328.377 622.821 332.43C626.069 335.194 627.732 337.474 629.668 341.767H619.082C615.624 337.27 611.611 335.334 605.662 335.334C600.407 335.334 596.044 337.27 592.929 340.946C590.231 344.221 588.745 348.327 588.72 352.57C588.71 357.139 590.503 361.527 593.709 364.782C596.916 368.036 601.276 369.895 605.844 369.954C610.755 369.954 614.263 368.291 618.472 363.935H629.696Z"
    fill="#0F2F50" />
  <path d="M680.03 327.063V378.19H670.623V342.77L648.413 378.19H638.802V327.063H648.209V362.483L670.413 327.063H680.03Z"
    fill="#0F2F50" />
  <path d="M696.629 336.127H687.158V327.063H715.584V336.127H706.106V378.19H696.629V336.127Z" fill="#0F2F50" />
  <path
    d="M722.711 327.063H750.176V336.127H732.189V348.165H749.419V357.228H732.189V369.126H750.176V378.19H722.711V327.063Z"
    fill="#0F2F50" />
  <path d="M765.743 336.127H756.265V327.063H784.698V336.127H775.22V378.19H765.743V336.127Z" fill="#0F2F50" />
</svg>