<svg width="2500" height="5326" viewBox="0 0 2500 5326" fill="none" xmlns="http://www.w3.org/2000/svg">
  <path
    d="M451.14 1873.8C552.503 1873.8 634.964 1956.27 634.964 2057.63C634.964 2158.99 552.503 2241.46 451.14 2241.46C349.777 2241.46 267.316 2158.99 267.316 2057.63C267.316 1956.27 349.777 1873.8 451.14 1873.8ZM649.804 1016.38C724.844 1068.61 815.907 1099.34 914.063 1099.34C1014.07 1099.34 1106.7 1067.42 1182.53 1013.39C1230.22 1039.03 1327.88 1113.63 1362.54 1303.66C1331.68 1295.48 1299.29 1291.06 1265.89 1291.06C1057.87 1291.06 888.616 1460.3 888.616 1668.33C888.616 1741.54 909.648 1809.9 945.885 1867.82C880.021 1925.88 786.75 2042.36 774.06 2241.95C758.175 2226.31 742.78 2212.58 728.79 2200.92C751.049 2157.96 763.707 2109.26 763.707 2057.63C763.707 1888.18 628.151 1749.89 459.788 1745.28C460.003 1678.65 460.637 1584.79 462.009 1452.47C465.039 1158.88 589.988 1051.18 649.804 1016.38ZM914.063 300.474C1098.82 300.474 1249.13 450.786 1249.13 635.546C1249.13 820.292 1098.82 970.604 914.063 970.604C729.319 970.604 579.008 820.292 579.008 635.546C579.008 450.786 729.319 300.474 914.063 300.474ZM1524.81 128.738C1709.55 128.738 1859.86 279.05 1859.86 463.81C1859.86 648.57 1709.55 798.882 1524.81 798.882C1465.64 798.882 1410.1 783.336 1361.83 756.296C1372.22 717.772 1377.87 677.315 1377.87 635.546C1377.87 503.326 1322.17 383.941 1233.11 299.377C1290.66 197.621 1399.79 128.738 1524.81 128.738ZM2093.18 1421.49V1554.03C2084.1 1553.23 2074.93 1552.75 2065.64 1552.75C1893.28 1552.75 1753.07 1692.96 1753.07 1865.32C1753.07 1925.34 1770.12 1981.44 1799.56 2029.1C1774.37 2048.54 1746.13 2074.1 1719.41 2106.54C1686.82 1994.96 1628.13 1921.1 1580.32 1876.5C1619.98 1816.79 1643.15 1745.23 1643.15 1668.33C1643.15 1549.2 1587.6 1442.87 1501.1 1373.68C1481.49 1107.49 1363.26 979.749 1278.6 921.781C1290.28 906.934 1301.17 891.435 1311 875.217C1375.01 908.659 1447.72 927.626 1524.81 927.626C1595.79 927.626 1663.07 911.546 1723.29 882.911C1821.59 923.949 2093.18 1069.19 2093.18 1421.49ZM2065.64 2049.14C1964.28 2049.14 1881.82 1966.68 1881.82 1865.32C1881.82 1763.95 1964.28 1681.49 2065.64 1681.49C2167 1681.49 2249.47 1763.95 2249.47 1865.32C2249.47 1966.68 2167 2049.14 2065.64 2049.14ZM1265.89 1916.87C1128.85 1916.87 1017.36 1805.38 1017.36 1668.33C1017.36 1531.3 1128.85 1419.81 1265.89 1419.81C1402.93 1419.81 1514.42 1531.3 1514.42 1668.33C1514.42 1805.38 1402.93 1916.87 1265.89 1916.87ZM128.743 2542.69C128.743 2443.33 207.703 2357.8 265.168 2308.68C317.178 2347.31 381.527 2370.2 451.14 2370.2C525.423 2370.2 593.691 2344.11 647.38 2300.68C687.536 2334.13 742.427 2388.33 772.459 2454.16V2669.33H901.203V2287.99C901.203 2105.79 981.521 2007.26 1031.44 1963.58C1095.87 2014.86 1177.34 2045.61 1265.89 2045.61C1350.74 2045.61 1429.13 2017.43 1492.22 1969.97C1542.43 2016.62 1615.45 2114.27 1615.45 2287.99V2375.39C1614.87 2385.46 1614.51 2395.7 1614.51 2406.21V2669.33H1615.45H1743.24H1744.19V2380.49C1753.46 2241.02 1836.54 2160.26 1888.82 2122.88C1939.14 2157.54 2000.05 2177.89 2065.64 2177.89C2127.39 2177.89 2184.96 2159.82 2233.49 2128.78C2289.11 2171.02 2371.26 2258.4 2371.26 2406.21V2669.33H2500V2406.21C2500 2217.12 2402.58 2100.45 2326.05 2037.93C2358.97 1988.43 2378.21 1929.09 2378.21 1865.32C2378.21 1749.87 2315.26 1648.93 2221.93 1594.8V1421.49C2221.93 1065.89 1990.42 881.206 1843.89 799.933C1932.92 715.368 1988.6 596.01 1988.6 463.81C1988.6 208.058 1780.54 2.35302e-05 1524.81 2.35302e-05C1356.7 2.35302e-05 1209.33 89.9664 1128 224.23C1063.94 190.769 991.207 171.736 914.063 171.736C658.327 171.736 450.265 379.794 450.265 635.546C450.265 745.623 488.886 846.804 553.189 926.425C462.185 992.146 336.499 1139.16 333.265 1451.14C331.887 1584.76 331.13 1691.11 330.986 1769.11C218.108 1816.3 138.573 1927.84 138.573 2057.63C138.573 2113.9 153.602 2166.71 179.728 2212.36C104.093 2277.73 0 2394.56 0 2542.69V2669.33H128.743V2542.69Z"
    fill="#05324F" />
  <path
    d="M2342.08 2863.19L2183.09 3264.4L2027.32 2863.19H1869.39L2111.6 3444.72L2030.51 3651.72H2169.23L2500 2863.19H2342.08Z"
    fill="#05324F" />
  <path
    d="M1476.74 2990.17C1568.51 2990.17 1630.4 3020.04 1683.74 3089.41H1846.99C1817.12 3023.25 1791.5 2988.04 1741.36 2945.35C1667.74 2883.45 1572.77 2849.33 1473.54 2849.33C1250.53 2849.33 1068.07 3031.78 1068.07 3254.78C1068.07 3483.13 1252.68 3665.59 1483.14 3665.59C1645.33 3665.59 1785.1 3575.97 1846.99 3431.92H1675.21C1610.12 3499.14 1555.7 3524.74 1479.94 3524.74C1333.76 3524.74 1215.32 3403.11 1215.32 3255.85C1215.32 3191.84 1239.86 3123.55 1280.41 3076.59C1328.43 3020.04 1395.65 2990.17 1476.74 2990.17Z"
    fill="#05324F" />
  <path d="M611.396 3651.72H757.584V3002.97H1026.46V2863.19H611.396V3651.72Z" fill="#05324F" />
  <path
    d="M289.167 3201.44C265.685 3208.91 231.545 3212.1 188.866 3212.1H146.175V3002.97H195.263C243.274 3002.97 265.685 3005.1 288.102 3010.43C330.774 3022.18 356.387 3059.53 356.387 3109.67C356.387 3154.48 330.774 3189.69 289.167 3201.44ZM403.332 2903.73C356.387 2873.85 303.032 2863.19 195.263 2863.19H0V3651.72H146.175V3351.88H193.133C300.895 3351.88 351.042 3343.35 393.734 3319.87C462.019 3281.46 503.633 3200.37 503.633 3106.47C503.633 3017.9 467.351 2945.34 403.332 2903.73Z"
    fill="#05324F" />
  <rect y="3845.59" width="2500" height="150" rx="75" fill="#EE1E45" />
  <path
    d="M314.697 4245.07C314.697 4245.07 314.697 4306.75 314.697 4430.13C339.925 4424.43 360.27 4413.12 375.732 4396.19C391.357 4379.26 399.17 4359.73 399.17 4337.6C399.17 4315.46 391.357 4295.93 375.732 4279C360.27 4262.08 339.925 4250.76 314.697 4245.07ZM246.094 4430.13V4245.56C220.866 4251.42 200.439 4262.73 184.814 4279.49C169.352 4296.26 161.621 4315.62 161.621 4337.6C161.621 4359.73 169.352 4379.26 184.814 4396.19C200.439 4413.12 220.866 4424.43 246.094 4430.13ZM246.094 4178.17V4156.2H314.697C314.697 4156.2 314.697 4163.53 314.697 4178.17C359.294 4185.01 395.996 4203.24 424.805 4232.86C453.613 4262.48 468.018 4297.4 468.018 4337.6C468.018 4377.8 453.613 4412.71 424.805 4442.33C395.996 4471.96 359.294 4490.19 314.697 4497.02V4525.59C314.697 4525.59 291.829 4525.59 246.094 4525.59C246.094 4525.59 246.094 4516.06 246.094 4497.02C216.96 4492.63 190.755 4483.02 167.48 4468.21C144.206 4453.24 125.895 4434.36 112.549 4411.57C99.2025 4388.79 92.5293 4364.13 92.5293 4337.6C92.5293 4311.07 99.2025 4286.41 112.549 4263.62C125.895 4240.84 144.206 4222.04 167.48 4207.23C190.755 4192.25 216.96 4182.57 246.094 4178.17ZM699.951 4248.49C699.951 4248.49 722.412 4248.49 767.334 4248.49C767.334 4248.49 767.334 4340.85 767.334 4525.59C767.334 4525.59 745.361 4525.59 701.416 4525.59C701.416 4525.59 701.416 4464.55 701.416 4342.48C701.416 4342.48 660.075 4403.52 577.393 4525.59C577.393 4525.59 554.932 4525.59 510.01 4525.59C510.01 4525.59 510.01 4433.22 510.01 4248.49C510.01 4248.49 531.982 4248.49 575.928 4248.49C575.928 4248.49 575.928 4309.52 575.928 4431.59C575.928 4431.59 617.269 4370.56 699.951 4248.49ZM1078.86 4525.59C1078.86 4525.59 1055.18 4525.59 1007.81 4525.59C1007.81 4525.59 984.375 4464.23 937.5 4341.5C937.5 4341.5 913.981 4402.86 866.943 4525.59C866.943 4525.59 843.262 4525.59 795.898 4525.59C795.898 4525.59 834.391 4433.22 911.377 4248.49C911.377 4248.49 928.711 4248.49 963.379 4248.49C963.379 4248.49 1001.87 4340.85 1078.86 4525.59ZM1297.61 4248.49C1297.61 4248.49 1320.07 4248.49 1364.99 4248.49C1364.99 4248.49 1364.99 4340.85 1364.99 4525.59C1364.99 4525.59 1343.02 4525.59 1299.07 4525.59C1299.07 4525.59 1299.07 4464.55 1299.07 4342.48C1299.07 4342.48 1257.73 4403.52 1175.05 4525.59C1175.05 4525.59 1152.59 4525.59 1107.67 4525.59C1107.67 4525.59 1107.67 4433.22 1107.67 4248.49C1107.67 4248.49 1129.64 4248.49 1173.58 4248.49C1173.58 4248.49 1173.58 4309.52 1173.58 4431.59C1173.58 4431.59 1214.93 4370.56 1297.61 4248.49ZM1698.49 4248.49C1698.49 4248.49 1698.49 4340.85 1698.49 4525.59C1698.49 4525.59 1678.22 4525.59 1637.7 4525.59C1637.7 4525.59 1637.7 4513.62 1637.7 4489.7C1624.35 4504.83 1610.51 4515.74 1596.19 4522.41C1582.03 4528.92 1565.19 4532.18 1545.65 4532.18C1518.96 4532.18 1494.95 4526.07 1473.63 4513.87C1452.47 4501.5 1435.87 4484.33 1423.83 4462.35C1411.95 4440.38 1406.01 4415.64 1406.01 4388.13C1406.01 4360.3 1412.03 4335.32 1424.07 4313.18C1436.12 4290.89 1452.88 4273.47 1474.37 4260.94C1495.85 4248.4 1520.1 4242.14 1547.12 4242.14C1567.14 4242.14 1584.39 4245.64 1598.88 4252.64C1613.36 4259.47 1626.3 4270.46 1637.7 4285.6V4248.49H1698.49ZM1552.98 4303.17C1529.87 4303.17 1510.74 4311.31 1495.61 4327.59C1480.63 4343.86 1473.14 4364.53 1473.14 4389.6C1473.14 4413.85 1480.71 4433.54 1495.85 4448.68C1511.15 4463.66 1530.92 4471.14 1555.18 4471.14C1579.26 4471.14 1598.63 4463.49 1613.28 4448.19C1628.09 4432.89 1635.5 4412.87 1635.5 4388.13C1635.5 4363.07 1627.77 4342.64 1612.3 4326.86C1597.01 4311.07 1577.23 4303.17 1552.98 4303.17ZM2010.01 4525.59C2010.01 4525.59 1986.33 4525.59 1938.96 4525.59C1938.96 4525.59 1915.53 4464.23 1868.65 4341.5C1868.65 4341.5 1845.13 4402.86 1798.1 4525.59C1798.1 4525.59 1774.41 4525.59 1727.05 4525.59C1727.05 4525.59 1765.54 4433.22 1842.53 4248.49C1842.53 4248.49 1859.86 4248.49 1894.53 4248.49C1894.53 4248.49 1933.02 4340.85 2010.01 4525.59ZM2245.36 4309.03C2245.36 4309.03 2245.36 4325.55 2245.36 4358.59C2245.36 4358.59 2260.99 4358.59 2292.24 4358.59C2305.91 4358.59 2316.24 4356.4 2323.24 4352C2330.24 4347.44 2333.74 4341.34 2333.74 4333.69C2333.74 4326.04 2330.16 4320.02 2323 4315.62C2316 4311.23 2305.75 4309.03 2292.24 4309.03H2245.36ZM2245.36 4407.18C2245.36 4407.18 2245.36 4426.46 2245.36 4465.04C2245.36 4465.04 2265.54 4465.04 2305.91 4465.04C2316 4465.04 2324.06 4462.43 2330.08 4457.23C2336.26 4451.86 2339.36 4444.78 2339.36 4435.99C2339.36 4427.2 2336.26 4420.2 2330.08 4414.99C2324.06 4409.78 2316 4407.18 2305.91 4407.18H2245.36ZM2364.75 4381.54C2376.3 4385.94 2386.07 4392.77 2394.04 4402.05C2402.18 4411.17 2406.25 4422.48 2406.25 4435.99C2406.25 4461.05 2397.3 4482.29 2379.39 4499.71C2361.49 4516.96 2338.46 4525.59 2310.3 4525.59H2178.96V4248.49C2178.96 4248.49 2216.96 4248.49 2292.97 4248.49C2324.38 4248.49 2349.61 4255.81 2368.65 4270.46C2387.86 4285.11 2397.46 4306.18 2397.46 4333.69C2397.46 4344.27 2394.21 4353.96 2387.7 4362.74C2381.35 4371.53 2373.7 4377.8 2364.75 4381.54ZM228.76 4913.49C228.76 4913.49 228.76 4933.67 228.76 4974.03C228.76 4974.03 198.568 4974.03 138.184 4974.03C138.184 4974.03 138.184 5046.22 138.184 5190.59C138.184 5190.59 116.048 5190.59 71.7773 5190.59C71.7773 5190.59 71.7773 5098.22 71.7773 4913.49C71.7773 4913.49 124.105 4913.49 228.76 4913.49ZM247.803 5190.59C247.803 5190.59 247.803 5169.26 247.803 5126.62C247.803 5126.62 269.938 5126.62 314.209 5126.62C314.209 5126.62 314.209 5147.94 314.209 5190.59C314.209 5190.59 292.074 5190.59 247.803 5190.59ZM526.855 5190.59C526.855 5190.59 526.855 5067.46 526.855 4821.2C526.855 4821.2 558.187 4821.2 620.85 4821.2C620.85 4821.2 654.053 4914.46 720.459 5100.99C720.459 5100.99 753.255 5007.72 818.848 4821.2C818.848 4821.2 850.179 4821.2 912.842 4821.2C912.842 4821.2 912.842 4944.33 912.842 5190.59C912.842 5190.59 890.055 5190.59 844.482 5190.59C844.482 5190.59 844.482 5098.22 844.482 4913.49C844.482 4913.49 812.337 5005.85 748.047 5190.59C748.047 5190.59 729.329 5190.59 691.895 5190.59C691.895 5190.59 659.749 5098.22 595.459 4913.49C595.459 4913.49 595.459 5005.85 595.459 5190.59C595.459 5190.59 572.591 5190.59 526.855 5190.59ZM1165.53 4913.49C1165.53 4913.49 1187.99 4913.49 1232.91 4913.49C1232.91 4913.49 1232.91 5005.85 1232.91 5190.59C1232.91 5190.59 1210.94 5190.59 1166.99 5190.59C1166.99 5190.59 1166.99 5129.55 1166.99 5007.48C1166.99 5007.48 1125.65 5068.52 1042.97 5190.59C1042.97 5190.59 1020.51 5190.59 975.586 5190.59C975.586 5190.59 975.586 5098.22 975.586 4913.49C975.586 4913.49 997.559 4913.49 1041.5 4913.49C1041.5 4913.49 1041.5 4974.52 1041.5 5096.59C1041.5 5096.59 1082.85 5035.56 1165.53 4913.49ZM1541.99 5190.59C1541.99 5190.59 1519.86 5190.59 1475.59 5190.59C1475.59 5190.59 1475.59 5154.05 1475.59 5080.97C1475.59 5080.97 1434.9 5080.97 1353.52 5080.97C1353.52 5080.97 1353.52 5117.51 1353.52 5190.59C1353.52 5190.59 1331.38 5190.59 1287.11 5190.59C1287.11 5190.59 1287.11 5098.22 1287.11 4913.49C1287.11 4913.49 1309.24 4913.49 1353.52 4913.49C1353.52 4913.49 1353.52 4949.21 1353.52 5020.66C1353.52 5020.66 1394.21 5020.66 1475.59 5020.66C1475.59 5020.66 1475.59 4984.94 1475.59 4913.49C1475.59 4913.49 1497.72 4913.49 1541.99 4913.49C1541.99 4913.49 1541.99 5005.85 1541.99 5190.59ZM1793.7 5099.52C1793.7 5099.52 1818.68 5099.52 1868.65 5099.52C1857.1 5130.61 1839.36 5154.7 1815.43 5171.79C1791.67 5188.71 1763.59 5197.18 1731.2 5197.18C1711.02 5197.18 1691.73 5193.35 1673.34 5185.7C1655.11 5178.05 1639.4 5167.8 1626.22 5154.94C1613.04 5142.08 1602.54 5126.7 1594.73 5108.8C1586.91 5090.9 1583.01 5072.01 1583.01 5052.16C1583.01 5025.47 1589.44 5001.05 1602.29 4978.92C1615.15 4956.62 1632.73 4939.12 1655.03 4926.43C1677.49 4913.57 1702.15 4907.14 1729 4907.14C1748.86 4907.14 1767.74 4910.72 1785.64 4917.88C1803.71 4924.88 1819.5 4934.97 1833.01 4948.15C1841.8 4956.78 1848.71 4965.24 1853.76 4973.54C1858.97 4981.68 1863.93 4992.51 1868.65 5006.02H1793.7C1780.68 4980.79 1759.11 4968.17 1729 4968.17C1705.89 4968.17 1686.93 4975.99 1672.12 4991.61C1657.47 5007.07 1650.15 5027.09 1650.15 5051.67C1650.15 5075.92 1657.8 5096.1 1673.1 5112.22C1688.56 5128.17 1707.76 5136.14 1730.71 5136.14C1744.38 5136.14 1756.18 5133.21 1766.11 5127.35C1776.2 5121.49 1785.4 5112.22 1793.7 5099.52ZM1908.69 5190.59C1908.69 5190.59 1908.69 5098.22 1908.69 4913.49C1908.69 4913.49 1930.83 4913.49 1975.1 4913.49C1975.1 4913.49 1975.1 4956.05 1975.1 5041.17C1975.1 5041.17 2007.08 4998.61 2071.04 4913.49C2071.04 4913.49 2097.9 4913.49 2151.61 4913.49C2151.61 4913.49 2114.75 4959.38 2041.02 5051.18C2041.02 5051.18 2079.83 5097.65 2157.47 5190.59C2157.47 5190.59 2128.66 5190.59 2071.04 5190.59C2071.04 5190.59 2039.06 5148.11 1975.1 5063.14C1975.1 5063.14 1975.1 5105.62 1975.1 5190.59C1975.1 5190.59 1952.96 5190.59 1908.69 5190.59ZM2438.96 5081.7C2438.96 5081.7 2367.43 5081.7 2224.37 5081.7C2228.43 5098.46 2237.3 5111.73 2250.98 5121.49C2264.65 5131.26 2281.33 5136.14 2301.03 5136.14C2314.7 5136.14 2326.09 5134.11 2335.21 5130.04C2344.32 5125.81 2353.19 5118.65 2361.82 5108.55H2434.33C2430.42 5121.09 2423.1 5133.95 2412.35 5147.13C2383.71 5180.49 2347.09 5197.18 2302.49 5197.18C2281.66 5197.18 2261.96 5193.43 2243.41 5185.95C2224.85 5178.46 2208.9 5168.37 2195.56 5155.67C2182.37 5142.82 2171.88 5127.52 2164.06 5109.78C2156.25 5091.87 2152.34 5072.99 2152.34 5053.13C2152.34 5026.44 2158.77 5001.95 2171.63 4979.65C2184.65 4957.19 2202.31 4939.53 2224.61 4926.67C2247.07 4913.65 2271.65 4907.14 2298.34 4907.14C2325.52 4907.14 2350.02 4913.57 2371.83 4926.43C2393.64 4939.12 2410.64 4956.86 2422.85 4979.65C2435.22 5002.27 2441.41 5027.74 2441.41 5056.06C2441.41 5065.18 2440.59 5073.72 2438.96 5081.7ZM2222.41 5023.11H2375.98C2371.74 5005.36 2363.04 4991.77 2349.85 4982.33C2336.67 4972.89 2319.82 4968.17 2299.32 4968.17C2279.46 4968.17 2262.94 4972.89 2249.76 4982.33C2236.74 4991.61 2227.62 5005.2 2222.41 5023.11Z"
    fill="#05324F" />
</svg>